<?xml version="1.0" encoding="UTF-8"?>
<svg id="a" data-name="Arrow_箭头" xmlns="http://www.w3.org/2000/svg" viewBox="0 0 3168 3168">
  <defs>
    <style>
      .b {
        fill: #fff;
        stroke-width: 0px;
      }
    </style>
  </defs>
  <polygon class="b" points="863.86 1368 899.86 1368 935.86 1404 899.86 1440 863.86 1440 899.86 1404 863.86 1368"/>
  <polygon class="b" points="791.86 1368 827.86 1368 863.86 1404 827.86 1440 791.86 1440 827.86 1404 791.86 1368"/>
  <polygon class="b" points="719.86 1368 755.86 1368 791.86 1404 755.86 1440 719.86 1440 755.86 1404 719.86 1368"/>
  <polygon class="b" points="647.86 1368 683.86 1368 719.86 1404 683.86 1440 647.86 1440 683.86 1404 647.86 1368"/>
  <polygon class="b" points="575.86 1368 611.86 1368 647.86 1404 611.86 1440 575.86 1440 611.86 1404 575.86 1368"/>
  <polygon class="b" points="503.86 1368 539.86 1368 575.86 1404 539.86 1440 503.86 1440 539.86 1404 503.86 1368"/>
  <polygon class="b" points="431.86 1368 467.86 1368 503.86 1404 467.86 1440 431.86 1440 467.86 1404 431.86 1368"/>
  <polygon class="b" points="935.86 1368 971.86 1368 1007.86 1404 971.86 1440 935.86 1440 971.86 1404 935.86 1368"/>
  <polygon class="b" points="1007.57 1368 1043.57 1368 1079.57 1404 1043.57 1440 1007.57 1440 1043.57 1404 1007.57 1368"/>
  <polygon class="b" points="1079.57 1368 1115.57 1368 1151.57 1404 1115.57 1440 1079.57 1440 1115.57 1404 1079.57 1368"/>
</svg>