<?xml version="1.0" encoding="UTF-8"?>
<svg id="a" data-name="Contact_触点" xmlns="http://www.w3.org/2000/svg" viewBox="0 0 3168 3168">
  <defs>
    <style>
      .b {
        fill: #fff;
        stroke-width: 0px;
      }
    </style>
  </defs>
  <rect class="b" x="720" y="1530" width="36" height="18"/>
  <rect class="b" x="648" y="1530" width="36" height="18"/>
  <rect class="b" x="864" y="1530" width="36" height="18"/>
  <rect class="b" x="792" y="1530" width="36" height="18"/>
  <rect class="b" x="720" y="1494" width="36" height="18"/>
  <rect class="b" x="648" y="1494" width="36" height="18"/>
  <rect class="b" x="864" y="1494" width="36" height="18"/>
  <rect class="b" x="792" y="1494" width="36" height="18"/>
  <rect class="b" x="720" y="1602" width="36" height="18"/>
  <rect class="b" x="648" y="1602" width="36" height="18"/>
  <rect class="b" x="864" y="1602" width="36" height="18"/>
  <rect class="b" x="792" y="1602" width="36" height="18"/>
  <rect class="b" x="720" y="1566" width="36" height="18"/>
  <rect class="b" x="648" y="1566" width="36" height="18"/>
  <rect class="b" x="864" y="1566" width="36" height="18"/>
  <rect class="b" x="792" y="1566" width="36" height="18"/>
  <rect class="b" x="1008" y="1530" width="36" height="18"/>
  <rect class="b" x="936" y="1530" width="36" height="18"/>
  <rect class="b" x="1152" y="1530" width="36" height="18"/>
  <rect class="b" x="1080" y="1530" width="36" height="18"/>
  <rect class="b" x="1008" y="1494" width="36" height="18"/>
  <rect class="b" x="936" y="1494" width="36" height="18"/>
  <rect class="b" x="1152" y="1494" width="36" height="18"/>
  <rect class="b" x="1080" y="1494" width="36" height="18"/>
</svg>