<?xml version="1.0" encoding="UTF-8"?>
<svg xmlns="http://www.w3.org/2000/svg" viewBox="0 0 2880 2880">
  <defs>
    <style>
      .cls-1, .cls-2 {
        stroke-width: 0px;
      }

      .cls-2 {
        fill: none;
      }
    </style>
  </defs>
  <g id="_背景" data-name="背景">
    <rect class="cls-2" width="2880" height="2880"/>
  </g>
  <g id="_主体" data-name="主体">
    <g>
      <polygon class="cls-1" points="831.49 773.94 930.8 1144.55 560.19 1243.85 593.29 1367.39 1087.44 1234.98 1054.33 1111.45 955.03 740.84 831.49 773.94"/>
      <polygon class="cls-1" points="1439.18 1848.21 1077.44 2209.95 1167.87 2300.39 1439.18 2029.08 1710.49 2300.39 1800.92 2209.95 1529.62 1938.65 1529.62 1938.65 1439.18 1848.21"/>
      <g>
        <rect class="cls-1" x="1894.48" y="1388.46" width="153.47" height="716.21" transform="translate(-526.96 2580.4) rotate(-60)"/>
        <rect class="cls-1" x="831.18" y="774.56" width="153.47" height="716.21" transform="translate(-526.96 1352.61) rotate(-60)"/>
      </g>
      <g>
        <polygon class="cls-1" points="1833.51 1791.72 1926.4 2138.39 2049.94 2105.29 1990.15 1882.15 1833.51 1791.72"/>
        <polygon class="cls-1" points="2098.23 1695.14 2321.25 1635.38 2288.14 1511.84 1941.59 1604.7 2098.23 1695.14"/>
      </g>
      <g>
        <rect class="cls-1" x="1362.83" y="1695.41" width="153.47" height="716.21"/>
        <rect class="cls-1" x="1362.83" y="467.62" width="153.47" height="716.21"/>
      </g>
      <g>
        <polygon class="cls-1" points="1547.95 924.85 1802.36 670.44 1711.93 580.01 1547.95 743.98 1547.95 924.85"/>
        <polygon class="cls-1" points="1331.95 742.64 1169.31 580.01 1078.88 670.44 1331.95 923.51 1331.95 742.64"/>
      </g>
      <g>
        <rect class="cls-1" x="831.18" y="1388.46" width="153.47" height="716.21" transform="translate(1966.53 87) rotate(60)"/>
        <rect class="cls-1" x="1894.48" y="774.56" width="153.47" height="716.21" transform="translate(1966.53 -1140.79) rotate(60)"/>
      </g>
      <g>
        <polygon class="cls-1" points="939.09 1603.58 591.75 1510.51 558.65 1634.05 782.45 1694.01 939.09 1603.58"/>
        <polygon class="cls-1" points="889.54 1881.6 829.96 2103.96 953.49 2137.06 1046.18 1791.16 889.54 1881.6"/>
      </g>
      <polygon class="cls-1" points="1616.78 1439.62 1528.17 1286.14 1350.96 1286.14 1262.35 1439.62 1350.96 1593.09 1528.17 1593.09 1616.78 1439.62"/>
      <polygon class="cls-1" points="2049.94 773.94 1926.4 740.84 1827.1 1111.45 1827.1 1111.45 1794 1234.98 1917.53 1268.09 1917.53 1268.09 2288.14 1367.39 2321.25 1243.85 1950.64 1144.55 2049.94 773.94"/>
    </g>
  </g>
</svg>