<?xml version="1.0" encoding="UTF-8"?>
<svg xmlns="http://www.w3.org/2000/svg" viewBox="0 0 2880 2880">
  <defs>
    <style>
      .cls-1, .cls-2 {
        stroke-width: 0px;
      }

      .cls-2 {
        fill: none;
      }
    </style>
  </defs>
  <g id="_背景" data-name="背景">
    <rect class="cls-2" width="2880" height="2880"/>
  </g>
  <g id="_主体" data-name="主体">
    <g>
      <g id="_爆炸效果" data-name="爆炸效果">
        <polygon class="cls-1" points="563.48 1905.55 410.21 1751.74 1253.2 1905.55 563.48 1905.55"/>
        <polygon class="cls-1" points="1636.38 1906.51 2291.61 1906.51 2556 1721.94 1636.38 1906.51"/>
        <polygon class="cls-1" points="1387.31 1924.77 601.8 1372.98 837.46 1412.39 758.9 1136.49 1387.31 1924.77"/>
        <g>
          <polygon class="cls-1" points="1417.01 1934.39 1082.56 1098.47 986.64 1098.47 1417.01 1934.39"/>
          <polygon class="cls-1" points="1049.29 1011.49 883.91 598.15 792.81 720.05 942.86 1011.49 1049.29 1011.49"/>
        </g>
        <g>
          <polygon class="cls-1" points="885.33 1752.31 1349 1915.16 931.7 1705.78 885.33 1752.31"/>
          <polygon class="cls-1" points="859.44 1669.52 426.5 1452.29 324 1555.15 805.05 1724.11 859.44 1669.52"/>
        </g>
        <g>
          <polygon class="cls-1" points="1444.79 1262.34 1444.79 1000.16 1183.53 790.42 1290.41 1262.34 1444.79 1262.34"/>
          <polygon class="cls-1" points="1314.16 1367.21 1444.79 1944 1444.79 1367.21 1314.16 1367.21"/>
        </g>
        <g>
          <polygon class="cls-1" points="2115.49 1275.73 2244.67 1141.11 2186.82 1034.69 2050.06 1210.07 2115.49 1275.73"/>
          <polygon class="cls-1" points="2002.17 1271.47 1492.69 1924.77 2061.98 1331.5 2002.17 1271.47"/>
        </g>
        <polygon class="cls-1" points="1468.74 1931.55 1927.57 847.53 1716.21 1002.38 1616.77 594 1468.74 1931.55"/>
        <polygon class="cls-1" points="1540.58 1915.16 2214.18 1424.54 2127.26 1598.98 2431.47 1598.98 1540.58 1915.16"/>
      </g>
      <g id="_爆炸物" data-name="爆炸物">
        <polygon class="cls-1" points="846 2250 697.09 1962 612 1962 612 2250 846 2250"/>
        <polygon class="cls-1" points="2034 2250 2182.91 1962 2268 1962 2268 2250 2034 2250"/>
        <polygon class="cls-1" points="1805.97 1998 1711.18 2039.14 1680.79 1998 1656 1998 1606.94 1998 1584 1998 1530 2097 1413 2061 1359 2133 1296 1998 1274.85 1998 1233 1998 1186.67 1998 1173.38 2070 1143.47 1998 783.71 1998 927.27 2286 1952.73 2286 2096.29 1998 1805.97 1998"/>
      </g>
    </g>
  </g>
</svg>