<?xml version="1.0" encoding="UTF-8"?>
<svg id="a" data-name="Arrow_Line_箭头线" xmlns="http://www.w3.org/2000/svg" viewBox="0 0 3168 3168">
  <defs>
    <style>
      .c {
        fill: #fff;
        stroke-width: 0px;
      }
    </style>
  </defs>
  <g id="b" data-name="W">
    <polygon class="c" points="1151.64 2016 1079.64 2016 1007.64 1944 1079.64 1872 1151.64 1872 1079.64 1944 1151.64 2016"/>
    <polygon class="c" points="1295.64 2016 1223.64 2016 1151.64 1944 1223.64 1872 1295.64 1872 1223.64 1944 1295.64 2016"/>
    <polygon class="c" points="1439.64 2016 1367.64 2016 1295.64 1944 1367.64 1872 1439.64 1872 1367.64 1944 1439.64 2016"/>
    <polygon class="c" points="1583.64 2016 1511.64 2016 1439.64 1944 1511.64 1872 1583.64 1872 1511.64 1944 1583.64 2016"/>
    <polygon class="c" points="1727.64 2016 1655.64 2016 1583.64 1944 1655.64 1872 1727.64 1872 1655.64 1944 1727.64 2016"/>
    <polygon class="c" points="1871.64 2016 1799.64 2016 1727.64 1944 1799.64 1872 1871.64 1872 1799.64 1944 1871.64 2016"/>
    <polygon class="c" points="2015.64 2016 1943.64 2016 1871.64 1944 1943.64 1872 2015.64 1872 1943.64 1944 2015.64 2016"/>
    <polygon class="c" points="1007.64 2016 935.64 2016 863.64 1944 935.64 1872 1007.64 1872 935.64 1944 1007.64 2016"/>
    <polygon class="c" points="863.79 2016 791.79 2016 719.79 1944 791.79 1872 863.79 1872 791.79 1944 863.79 2016"/>
    <polygon class="c" points="719.79 2016 647.79 2016 575.79 1944 647.79 1872 719.79 1872 647.79 1944 719.79 2016"/>
  </g>
</svg>