<?xml version="1.0" encoding="UTF-8"?>
<svg id="a" data-name="PCB_电路板" xmlns="http://www.w3.org/2000/svg" viewBox="0 0 3168 3168">
  <defs>
    <style>
      .b {
        fill: #fff;
        stroke-width: 0px;
      }
    </style>
  </defs>
  <polygon class="b" points="585.93 2825.74 567.93 2834.74 567.93 2835.74 456.62 2835.74 379.95 2912.41 378.93 3095.69 394.93 3095.78 395.91 2919.07 463.24 2851.74 567.93 2851.74 567.93 2852.74 585.93 2861.74 603.93 2861.74 603.93 2825.74 585.93 2825.74"/>
  <polygon class="b" points="567.93 2906.74 567.93 2907.74 492.62 2907.74 451.93 2948.43 452.07 3095.75 468.07 3095.73 467.93 2955.05 499.24 2923.74 567.93 2923.74 567.93 2924.74 585.93 2933.74 603.93 2933.74 603.93 2897.74 585.93 2897.74 567.93 2906.74"/>
</svg>