<?xml version="1.0" encoding="UTF-8"?>
<svg id="a" data-name="Falsework_临时支架" xmlns="http://www.w3.org/2000/svg" viewBox="0 0 3168 3168">
  <defs>
    <style>
      .b {
        fill: #fff;
        stroke-width: 0px;
      }
    </style>
  </defs>
  <path class="b" d="m800.32,1133.55v-54.55h-43.76v2.7s-31.77,0-31.77,0v-2.7h-43.76v54.55h2.7s0,107.3,0,107.3h-2.7v54.55h43.76v-2.7s31.77,0,31.77,0v2.7h43.76v-54.55h-2.7s0-107.3,0-107.3h2.7Zm-14.59-43.16l-45.05,90.11-45.05-90.11h29.17v-2.7s31.77,0,31.77,0v2.7h29.17Zm-93.31,43.16v-36.16s44.9,89.81,44.9,89.81l-44.9,89.81v-36.16h-2.7s0-107.3,0-107.3h2.7Zm3.2,150.46l45.05-90.11,45.05,90.11h-29.17v2.7s-31.77,0-31.77,0v-2.7h-29.17Zm93.31-43.16v36.16s-44.9-89.81-44.9-89.81l44.9-89.81v36.16h2.7s0,107.3,0,107.3h-2.7Z"/>
</svg>