<?xml version="1.0" encoding="UTF-8"?>
<svg id="a" data-name="Microchip_微芯片" xmlns="http://www.w3.org/2000/svg" viewBox="0 0 3168 3168">
  <defs>
    <style>
      .c {
        fill: #fff;
        stroke-width: 0px;
      }
    </style>
  </defs>
  <g id="b" data-name="B">
    <path class="c" d="m2142.09,198.25v323.79h324.54V198.25h-324.54Zm297.49,296.8h-270.45V225.23h270.45v269.82Z"/>
    <rect class="c" x="2421.55" y="144.29" width="18.03" height="44.97"/>
    <rect class="c" x="2385.49" y="144.29" width="18.03" height="44.97"/>
    <rect class="c" x="2349.43" y="144.29" width="18.03" height="44.97"/>
    <rect class="c" x="2313.37" y="144.29" width="18.03" height="44.97"/>
    <rect class="c" x="2277.31" y="144.29" width="18.03" height="44.97"/>
    <rect class="c" x="2241.25" y="144.29" width="18.03" height="44.97"/>
    <rect class="c" x="2205.19" y="144.29" width="18.03" height="44.97"/>
    <rect class="c" x="2169.13" y="144.29" width="18.03" height="44.97"/>
    <rect class="c" x="2421.55" y="531.03" width="18.03" height="44.97"/>
    <rect class="c" x="2385.49" y="531.03" width="18.03" height="44.97"/>
    <rect class="c" x="2349.43" y="531.03" width="18.03" height="44.97"/>
    <rect class="c" x="2313.37" y="531.03" width="18.03" height="44.97"/>
    <rect class="c" x="2277.31" y="531.03" width="18.03" height="44.97"/>
    <rect class="c" x="2241.25" y="531.03" width="18.03" height="44.97"/>
    <rect class="c" x="2205.19" y="531.03" width="18.03" height="44.97"/>
    <rect class="c" x="2169.13" y="531.03" width="18.03" height="44.97"/>
    <rect class="c" x="2474.64" y="225.23" width="45.07" height="17.99"/>
    <rect class="c" x="2474.64" y="261.21" width="45.07" height="17.99"/>
    <rect class="c" x="2474.64" y="297.18" width="45.07" height="17.99"/>
    <rect class="c" x="2474.64" y="333.16" width="45.07" height="17.99"/>
    <rect class="c" x="2474.64" y="369.14" width="45.07" height="17.99"/>
    <rect class="c" x="2474.64" y="405.11" width="45.07" height="17.99"/>
    <rect class="c" x="2474.64" y="441.09" width="45.07" height="17.99"/>
    <rect class="c" x="2474.64" y="477.07" width="45.07" height="17.99"/>
    <rect class="c" x="2088" y="225.23" width="45.07" height="17.99"/>
    <rect class="c" x="2088" y="261.21" width="45.07" height="17.99"/>
    <rect class="c" x="2088" y="297.18" width="45.07" height="17.99"/>
    <rect class="c" x="2088" y="333.16" width="45.07" height="17.99"/>
    <rect class="c" x="2088" y="369.14" width="45.07" height="17.99"/>
    <rect class="c" x="2088" y="405.11" width="45.07" height="17.99"/>
    <rect class="c" x="2088" y="441.09" width="45.07" height="17.99"/>
    <rect class="c" x="2088" y="477.07" width="45.07" height="17.99"/>
  </g>
</svg>