<?xml version="1.0" encoding="UTF-8"?>
<svg id="a" data-name="主体" xmlns="http://www.w3.org/2000/svg" viewBox="0 0 2880 2880">
  <defs>
    <style>
      .c {
        stroke-width: 0px;
      }
    </style>
  </defs>
  <g id="b" data-name="雪花">
    <g>
      <rect class="c" x="1241.07" y="550.69" width="127.89" height="511.58" transform="translate(-188.03 1159) rotate(-45)"/>
      <rect class="c" x="1512.38" y="550.69" width="127.89" height="511.58" transform="translate(2120.69 2491.37) rotate(-135)"/>
    </g>
    <rect class="c" x="759.92" y="984.01" width="127.89" height="511.58" transform="translate(-160.46 2356.48) rotate(-105)"/>
    <rect class="c" x="895.57" y="749.06" width="127.89" height="511.58" transform="translate(2146.41 1727.11) rotate(165)"/>
    <g>
      <rect class="c" x="894.03" y="1618.03" width="127.89" height="511.58" transform="translate(1398.34 3931.74) rotate(-165)"/>
      <rect class="c" x="758.38" y="1383.08" width="127.89" height="511.58" transform="translate(2618.18 1268.73) rotate(105)"/>
    </g>
    <g>
      <rect class="c" x="1510.94" y="1818.9" width="127.89" height="511.58" transform="translate(4155.52 2428.1) rotate(135)"/>
      <rect class="c" x="1239.63" y="1818.9" width="127.89" height="511.58" transform="translate(1848.83 -314.11) rotate(45)"/>
    </g>
    <g>
      <rect class="c" x="1993.73" y="1384.41" width="127.89" height="511.58" transform="translate(3109.42 -771.88) rotate(75)"/>
      <rect class="c" x="1858.07" y="1619.36" width="127.89" height="511.58" transform="translate(-419.83 561.35) rotate(-15)"/>
    </g>
    <g>
      <rect class="c" x="1894.53" y="1388.84" width="153.47" height="716.21" transform="translate(-527.27 2580.64) rotate(-60)"/>
      <rect class="c" x="831.23" y="774.95" width="153.47" height="716.21" transform="translate(-527.27 1352.85) rotate(-60)"/>
    </g>
    <g>
      <rect class="c" x="1362.88" y="1695.79" width="153.47" height="716.21"/>
      <rect class="c" x="1362.88" y="468" width="153.47" height="716.21"/>
    </g>
    <g>
      <rect class="c" x="831.23" y="1388.84" width="153.47" height="716.21" transform="translate(1966.88 87.15) rotate(60)"/>
      <rect class="c" x="1894.53" y="774.95" width="153.47" height="716.21" transform="translate(1966.88 -1140.64) rotate(60)"/>
    </g>
    <polygon class="c" points="1616.83 1440 1528.22 1286.53 1351.01 1286.53 1262.4 1440 1351.01 1593.47 1528.22 1593.47 1616.83 1440"/>
    <g>
      <rect class="c" x="1858.07" y="749.06" width="127.89" height="511.58" transform="translate(325.56 -463.22) rotate(15)"/>
      <rect class="c" x="1993.73" y="984.01" width="127.89" height="511.58" transform="translate(327.55 2906.48) rotate(-75)"/>
    </g>
  </g>
</svg>