<?xml version="1.0" encoding="UTF-8"?>
<svg xmlns="http://www.w3.org/2000/svg" viewBox="0 0 2880 2880">
  <defs>
    <style>
      .cls-1, .cls-2 {
        stroke-width: 0px;
      }

      .cls-2 {
        fill: none;
      }
    </style>
  </defs>
  <g id="_背景" data-name="背景">
    <rect class="cls-2" width="2880" height="2880"/>
  </g>
  <g id="_主体" data-name="主体">
    <g>
      <polygon id="_闪电" data-name="闪电" class="cls-1" points="1802.2 987.78 1345.69 1205 1639.88 580.5 1294.97 580.5 987.25 1595.32 1494.48 1364.52 1377.59 1800.3 1245.28 1612.33 1323.71 2299.5 1766.23 1771.04 1539.43 1841.63 1802.2 987.78"/>
      <g id="_效果" data-name="效果">
        <g>
          <polygon class="cls-1" points="1191.33 2299.5 693.08 1960.42 817.65 2186.47 443.96 2299.5 1191.33 2299.5"/>
          <polygon class="cls-1" points="1242 2259 869.37 1920.88 1040.16 1991.33 1009.11 1794.09 1242 2259"/>
        </g>
        <g>
          <polygon class="cls-1" points="1485.27 2299.5 2254.94 2014.92 2073.85 2204.64 2436.04 2299.5 1485.27 2299.5"/>
          <polygon class="cls-1" points="1485 2254.8 1767.92 1953 1759.67 2040.19 1972.63 1997.8 1485 2254.8"/>
        </g>
      </g>
    </g>
  </g>
</svg>