<?xml version="1.0" encoding="UTF-8"?>
<svg xmlns="http://www.w3.org/2000/svg" viewBox="0 0 2880 2880">
  <defs>
    <style>
      .cls-1 {
        fill: none;
      }

      .cls-1, .cls-2 {
        stroke-width: 0px;
      }

      .cls-2 {
        fill: #fff;
      }
    </style>
  </defs>
  <g id="_背景" data-name="背景">
    <rect class="cls-1" width="2880" height="2880"/>
  </g>
  <g id="_主体" data-name="主体">
    <g>
      <g id="_碰撞效果" data-name="碰撞效果">
        <polygon class="cls-2" points="1180.71 2233 2353.39 1920.29 2118.86 2105.96 2587.93 2233 1180.71 2233"/>
        <polygon class="cls-2" points="876.43 2233 601.94 1272.28 601.94 1618.49 396.07 1410.76 876.43 2233"/>
        <polygon class="cls-2" points="790.39 2233 481.59 1958.51 550.21 2130.07 412.96 2233 790.39 2233"/>
      </g>
      <g id="_物品" data-name="物品">
        <rect class="cls-2" x="1187.41" y="1043.94" width="576.12" height="576.12" transform="translate(-294.47 427.27) rotate(-15)"/>
        <polygon class="cls-2" points="1913.48 1853.68 1661.48 1708.19 1979.47 1622.98 1894.27 1304.99 2039.76 1052.99 2231.47 1768.48 1913.48 1853.68"/>
        <polygon class="cls-2" points="953.79 1770.01 1099.28 1518.01 1184.49 1836 1502.48 1750.79 1754.48 1896.29 1039 2088 953.79 1770.01"/>
        <polygon class="cls-2" points="1037.47 810.32 1289.47 955.81 971.47 1041.02 1056.68 1359.01 911.19 1611.01 719.47 895.52 1037.47 810.32"/>
        <polygon class="cls-2" points="1997.16 893.99 1851.66 1145.99 1766.46 828 1448.46 913.21 1196.46 767.71 1911.95 576 1997.16 893.99"/>
      </g>
    </g>
  </g>
</svg>