<?xml version="1.0" encoding="UTF-8"?>
<svg id="a" data-name="主体" xmlns="http://www.w3.org/2000/svg" viewBox="0 0 2880 2880">
  <defs>
    <style>
      .f {
        stroke: #000;
        stroke-miterlimit: 10;
      }

      .g {
        stroke-width: 0px;
      }
    </style>
  </defs>
  <g id="b" data-name="碰撞效果">
    <g id="c" data-name="碰撞_左">
      <polygon class="f" points="1361.51 1818 909.22 2152.15 989.51 2012.6 702 1995.77 1361.51 1818"/>
      <polygon class="f" points="1385.44 1883.93 1404.28 2315.51 1251 2106 1110.28 2184.21 1385.44 1883.93"/>
    </g>
    <g id="d" data-name="碰撞_右">
      <polygon class="f" points="1903.84 1373.54 2142.78 1257.18 2067.91 1326.19 2208.85 1404 1903.84 1373.54"/>
      <polygon class="f" points="1836 1330.7 1874.73 756 2001.46 1017.11 2300.91 856.88 1836 1330.7"/>
    </g>
  </g>
  <g id="e" data-name="齿轮">
    <path class="g" d="m2406.11,1912.8h-41.74c-3.07,0-5.6-2.36-5.87-5.41-1.05-11.87-2.61-23.65-4.66-35.3-.53-3.02,1.31-5.96,4.27-6.75l40.33-10.81c3.14-.84,5.01-4.07,4.17-7.22l-13.1-48.89c-.84-3.14-4.07-5.01-7.22-4.17l-40.4,10.82c-2.96.79-6.02-.82-7.07-3.7-4.08-11.16-8.63-22.12-13.64-32.87-1.3-2.78-.28-6.09,2.38-7.63l36.24-20.92c2.82-1.63,3.79-5.23,2.16-8.05l-25.31-43.83c-1.63-2.82-5.23-3.78-8.05-2.16l-36.24,20.92c-2.63,1.52-6.01.8-7.75-1.69-.52-.74-1.03-1.47-1.55-2.2-3.72-5.23-11.25-5.86-15.79-1.32l-47.23,47.23c-2.14,2.14-2.49,5.52-.79,8.03,36.32,53.32,57.56,117.73,57.56,187.11,0,184.18-148.62,332.8-332.8,332.8-69.38,0-133.79-21.24-187.11-57.56-2.51-1.71-5.88-1.36-8.03.79l-47.31,47.31c-4.54,4.54-3.91,12.06,1.32,15.79.74.53,1.49,1.05,2.23,1.58,2.49,1.75,3.21,5.12,1.69,7.75l-20.87,36.15c-1.63,2.82-.66,6.42,2.16,8.05l43.83,25.31c2.82,1.63,6.42.66,8.05-2.16l20.89-36.19c1.53-2.66,4.84-3.67,7.62-2.38,10.69,4.96,21.66,9.49,32.9,13.58,2.89,1.05,4.51,4.11,3.71,7.07l-10.83,40.4c-.84,3.14,1.02,6.38,4.17,7.22l48.89,13.1c3.14.84,6.38-1.02,7.22-4.17l10.83-40.4c.79-2.97,3.73-4.8,6.75-4.27,11.78,2.08,23.55,3.64,35.28,4.69,3.05.27,5.4,2.81,5.4,5.87v41.79c0,3.26,2.64,5.89,5.89,5.89h50.61c3.26,0,5.89-2.64,5.89-5.89v-41.74c0-3.07,2.36-5.6,5.41-5.87,11.87-1.05,23.65-2.61,35.3-4.66,3.02-.53,5.96,1.31,6.75,4.27l10.81,40.33c.84,3.14,4.07,5.01,7.22,4.17l48.89-13.1c3.14-.84,5.01-4.07,4.17-7.22l-10.82-40.4c-.79-2.96.82-6.02,3.7-7.07,11.16-4.08,22.12-8.63,32.87-13.64,2.78-1.3,6.09-.28,7.62,2.38l20.92,36.24c1.63,2.82,5.23,3.79,8.05,2.16l43.83-25.31c2.82-1.63,3.78-5.23,2.16-8.05l-20.92-36.24c-1.53-2.66-.76-6.03,1.75-7.79,9.71-6.8,19.13-14.02,28.25-21.65,2.35-1.97,5.81-1.84,7.97.33l29.57,29.57c2.3,2.3,6.03,2.3,8.34,0l35.79-35.79c2.3-2.3,2.3-6.03,0-8.34l-29.52-29.52c-2.17-2.17-2.3-5.63-.32-7.98,7.6-9.06,14.84-18.48,21.68-28.24,1.76-2.51,5.13-3.28,7.79-1.75l36.15,20.87c2.82,1.63,6.42.66,8.05-2.16l25.31-43.83c1.63-2.82.66-6.42-2.16-8.05l-36.19-20.89c-2.66-1.53-3.67-4.84-2.38-7.62,4.96-10.69,9.49-21.66,13.58-32.9,1.05-2.89,4.11-4.51,7.07-3.71l40.4,10.83c3.14.84,6.38-1.02,7.22-4.17l13.1-48.89c.84-3.14-1.02-6.38-4.17-7.22l-40.4-10.83c-2.97-.79-4.8-3.73-4.27-6.75,2.08-11.78,3.64-23.55,4.69-35.28.27-3.05,2.81-5.4,5.87-5.4h41.79c3.26,0,5.89-2.64,5.89-5.89v-50.61c0-3.26-2.64-5.89-5.89-5.89Z"/>
    <path class="g" d="m1611.2,1944c0-184.18,148.62-332.8,332.8-332.8,69.38,0,133.79,21.24,187.11,57.56,2.51,1.71,5.88,1.36,8.03-.79l47.31-47.31c4.54-4.54,3.91-12.06-1.32-15.79-.74-.53-1.49-1.06-2.23-1.58-2.49-1.74-3.21-5.12-1.69-7.75l20.87-36.15c1.63-2.82.66-6.42-2.16-8.05l-43.83-25.31c-2.82-1.63-6.42-.66-8.05,2.16l-20.89,36.19c-1.53,2.65-4.84,3.67-7.62,2.38-10.69-4.96-21.66-9.49-32.9-13.58-2.89-1.05-4.51-4.11-3.71-7.07l10.83-40.4c.84-3.14-1.02-6.38-4.17-7.22l-48.89-13.1c-3.14-.84-6.38,1.02-7.22,4.17l-10.83,40.4c-.79,2.97-3.73,4.8-6.75,4.27-11.78-2.08-23.55-3.64-35.28-4.69-3.05-.27-5.4-2.81-5.4-5.87v-41.79c0-3.26-2.64-5.89-5.89-5.89h-50.61c-3.26,0-5.89,2.64-5.89,5.89v41.74c0,3.07-2.36,5.6-5.41,5.87-11.87,1.05-23.65,2.61-35.3,4.66-3.02.53-5.96-1.31-6.75-4.27l-10.81-40.33c-.84-3.14-4.07-5.01-7.22-4.17l-48.89,13.1c-3.14.84-5.01,4.07-4.17,7.22l10.82,40.4c.79,2.96-.82,6.02-3.7,7.07-11.16,4.08-22.12,8.63-32.87,13.64-2.78,1.3-6.09.28-7.62-2.38l-20.92-36.24c-1.63-2.82-5.23-3.79-8.05-2.16l-43.83,25.31c-2.82,1.63-3.78,5.23-2.16,8.05l20.92,36.24c1.53,2.66.76,6.03-1.75,7.79-9.71,6.8-19.13,14.02-28.25,21.65-2.35,1.97-5.81,1.84-7.97-.33l-29.57-29.57c-2.3-2.3-6.03-2.3-8.34,0l-35.79,35.79c-2.3,2.3-2.3,6.03,0,8.34l29.52,29.52c2.17,2.17,2.3,5.63.32,7.98-7.6,9.06-14.84,18.48-21.68,28.24-1.76,2.51-5.13,3.28-7.79,1.75l-36.15-20.87c-2.82-1.63-6.42-.66-8.05,2.16l-25.31,43.83c-1.63,2.82-.66,6.42,2.16,8.05l36.19,20.89c2.65,1.53,3.67,4.84,2.38,7.62-4.96,10.69-9.49,21.66-13.58,32.9-1.05,2.89-4.11,4.51-7.07,3.71l-40.4-10.83c-3.14-.84-6.38,1.02-7.22,4.17l-13.1,48.89c-.84,3.14,1.02,6.38,4.17,7.22l40.4,10.83c2.97.79,4.8,3.73,4.27,6.75-2.08,11.78-3.64,23.55-4.69,35.28-.27,3.05-2.81,5.4-5.87,5.4h-41.79c-3.26,0-5.89,2.64-5.89,5.89v50.61c0,3.26,2.64,5.89,5.89,5.89h41.74c3.07,0,5.6,2.36,5.87,5.41,1.05,11.87,2.61,23.65,4.66,35.3.53,3.02-1.31,5.96-4.27,6.75l-40.33,10.81c-3.14.84-5.01,4.07-4.17,7.22l13.1,48.89c.84,3.14,4.07,5.01,7.22,4.17l40.4-10.82c2.96-.79,6.02.82,7.07,3.7,4.08,11.16,8.63,22.12,13.64,32.87,1.3,2.78.28,6.09-2.38,7.62l-36.24,20.92c-2.82,1.63-3.79,5.23-2.16,8.05l25.31,43.83c1.63,2.82,5.23,3.78,8.05,2.16l36.24-20.92c2.63-1.52,6.01-.8,7.75,1.69.52.74,1.03,1.47,1.55,2.2,3.72,5.23,11.25,5.86,15.79,1.32l47.23-47.23c2.14-2.14,2.49-5.52.79-8.03-36.32-53.32-57.56-117.73-57.56-187.11Z"/>
    <path class="g" d="m1799.06,2147.22c40.86,29.2,90.89,46.38,144.94,46.38,137.7,0,249.6-111.9,249.6-249.6,0-54.05-17.18-104.08-46.38-144.94-2.13-2.97-6.42-3.32-9.01-.73l-339.89,339.89c-2.59,2.59-2.24,6.88.73,9.01Z"/>
    <path class="g" d="m2088.94,1740.78c-40.86-29.2-90.89-46.38-144.94-46.38-137.7,0-249.61,111.9-249.61,249.6,0,54.05,17.18,104.08,46.38,144.94,2.13,2.98,6.42,3.32,9.01.73l339.89-339.89c2.59-2.59,2.24-6.88-.73-9.01Z"/>
    <path class="g" d="m1444.36,1598.34c-2.12-3.68-1.05-8.35,2.43-10.79,13.44-9.42,26.49-19.42,39.11-29.97,3.26-2.72,8.04-2.55,11.04.46l40.95,40.94c3.19,3.19,8.35,3.19,11.54,0l49.55-49.55c3.19-3.19,3.19-8.35,0-11.54l-40.88-40.88c-3.01-3.01-3.18-7.79-.45-11.05,10.53-12.55,20.54-25.59,30.02-39.1,2.44-3.48,7.11-4.55,10.79-2.42l50.05,28.9c3.9,2.25,8.89.92,11.15-2.99l35.04-60.69c2.25-3.9.92-8.89-2.99-11.15l-50.11-28.93c-3.68-2.12-5.09-6.7-3.3-10.55,6.86-14.8,13.15-29.99,18.81-45.55,1.45-3.99,5.69-6.24,9.79-5.14l55.94,14.99c4.35,1.17,8.83-1.42,10-5.77l18.14-67.69c1.17-4.35-1.42-8.83-5.77-10l-55.94-14.99c-4.11-1.1-6.65-5.16-5.91-9.35,2.88-16.31,5.03-32.6,6.49-48.85.38-4.23,3.89-7.48,8.13-7.48h57.86c4.51,0,8.16-3.65,8.16-8.16v-70.08c0-4.51-3.65-8.16-8.16-8.16h-57.79c-4.25,0-7.76-3.26-8.13-7.49-1.45-16.44-3.61-32.74-6.45-48.87-.74-4.19,1.81-8.25,5.91-9.35l55.84-14.96c4.35-1.17,6.94-5.64,5.77-10l-18.14-67.69c-1.17-4.35-5.64-6.94-10-5.77l-55.93,14.99c-4.1,1.1-8.33-1.14-9.79-5.13-5.65-15.45-11.95-30.63-18.89-45.51-1.79-3.85-.39-8.43,3.29-10.56l50.18-28.97c3.9-2.25,5.24-7.24,2.99-11.15l-35.04-60.69c-2.25-3.9-7.24-5.24-11.15-2.99l-50.18,28.97c-3.65,2.11-8.32,1.1-10.73-2.34-.71-1.02-1.43-2.03-2.15-3.05-5.15-7.24-15.58-8.12-21.86-1.83l-65.4,65.4c-2.97,2.97-3.45,7.64-1.09,11.11,50.29,73.83,79.7,163.01,79.7,259.07,0,255.02-205.79,460.8-460.8,460.8-96.06,0-185.25-29.41-259.07-79.7-3.47-2.36-8.14-1.88-11.11,1.09l-65.5,65.5c-6.28,6.28-5.41,16.7,1.82,21.86,1.03.73,2.06,1.46,3.09,2.19,3.45,2.42,4.44,7.08,2.34,10.73l-28.9,50.05c-2.25,3.9-.92,8.89,2.99,11.15l60.69,35.04c3.9,2.25,8.89.92,11.15-2.99l28.93-50.11c2.12-3.68,6.7-5.09,10.55-3.3,14.8,6.86,29.99,13.15,45.55,18.81,3.99,1.45,6.24,5.69,5.14,9.79l-14.99,55.94c-1.17,4.35,1.42,8.83,5.77,10l67.69,18.14c4.35,1.17,8.83-1.42,9.99-5.77l14.99-55.94c1.1-4.11,5.16-6.65,9.35-5.91,16.31,2.88,32.6,5.03,48.85,6.49,4.23.38,7.48,3.89,7.48,8.13v57.86c0,4.51,3.65,8.16,8.16,8.16h70.08c4.51,0,8.16-3.65,8.16-8.16v-57.79c0-4.25,3.26-7.76,7.49-8.13,16.44-1.45,32.74-3.61,48.87-6.45,4.19-.74,8.25,1.81,9.35,5.91l14.96,55.84c1.17,4.35,5.64,6.94,10,5.77l67.69-18.14c4.35-1.17,6.94-5.64,5.77-10l-14.99-55.93c-1.1-4.1,1.14-8.33,5.13-9.79,15.45-5.65,30.63-11.95,45.51-18.89,3.85-1.79,8.43-.39,10.56,3.29l28.97,50.18c2.25,3.9,7.24,5.24,11.15,2.99l60.69-35.04c3.9-2.25,5.24-7.24,2.99-11.15l-28.97-50.18Z"/>
    <path class="g" d="m655.2,1116c0-255.02,205.79-460.8,460.8-460.8,96.06,0,185.25,29.41,259.07,79.7,3.47,2.36,8.14,1.88,11.11-1.09l65.5-65.5c6.28-6.28,5.41-16.7-1.82-21.86-1.03-.73-2.06-1.46-3.09-2.19-3.45-2.42-4.44-7.08-2.34-10.73l28.9-50.05c2.25-3.9.92-8.89-2.99-11.15l-60.69-35.04c-3.9-2.25-8.89-.92-11.15,2.99l-28.93,50.11c-2.12,3.68-6.7,5.09-10.55,3.3-14.8-6.86-29.99-13.15-45.55-18.81-3.99-1.45-6.24-5.69-5.14-9.79l14.99-55.94c1.17-4.35-1.42-8.83-5.77-10l-67.69-18.14c-4.35-1.17-8.83,1.42-10,5.77l-14.99,55.94c-1.1,4.11-5.16,6.65-9.35,5.91-16.31-2.88-32.6-5.03-48.85-6.49-4.23-.38-7.48-3.89-7.48-8.13v-57.86c0-4.51-3.65-8.16-8.16-8.16h-70.08c-4.51,0-8.16,3.65-8.16,8.16v57.79c0,4.25-3.26,7.76-7.49,8.13-16.44,1.45-32.74,3.61-48.87,6.45-4.19.74-8.25-1.81-9.35-5.91l-14.96-55.84c-1.17-4.35-5.64-6.94-10-5.77l-67.69,18.14c-4.35,1.17-6.94,5.64-5.77,10l14.99,55.93c1.1,4.1-1.14,8.33-5.13,9.79-15.45,5.65-30.63,11.95-45.51,18.89-3.85,1.79-8.43.39-10.56-3.29l-28.97-50.18c-2.25-3.9-7.25-5.24-11.15-2.99l-60.69,35.04c-3.9,2.25-5.24,7.24-2.99,11.15l28.97,50.18c2.12,3.68,1.05,8.35-2.43,10.79-13.44,9.42-26.49,19.42-39.11,29.97-3.26,2.72-8.04,2.55-11.04-.46l-40.95-40.95c-3.19-3.19-8.35-3.19-11.54,0l-49.55,49.55c-3.19,3.19-3.19,8.35,0,11.54l40.88,40.88c3.01,3.01,3.18,7.79.45,11.05-10.53,12.55-20.54,25.59-30.02,39.1-2.44,3.48-7.11,4.55-10.79,2.42l-50.05-28.9c-3.9-2.25-8.89-.92-11.15,2.99l-35.04,60.69c-2.25,3.9-.92,8.89,2.99,11.15l50.11,28.93c3.68,2.12,5.09,6.7,3.3,10.55-6.86,14.8-13.15,29.99-18.81,45.55-1.45,3.99-5.69,6.24-9.79,5.14l-55.94-14.99c-4.35-1.17-8.83,1.42-10,5.77l-18.14,67.69c-1.17,4.35,1.42,8.83,5.77,9.99l55.94,14.99c4.11,1.1,6.65,5.16,5.91,9.35-2.88,16.31-5.03,32.6-6.49,48.85-.38,4.23-3.89,7.48-8.13,7.48h-57.86c-4.51,0-8.16,3.65-8.16,8.16v70.08c0,4.51,3.65,8.16,8.16,8.16h57.79c4.25,0,7.76,3.26,8.13,7.49,1.45,16.44,3.61,32.74,6.45,48.87.74,4.19-1.81,8.25-5.91,9.35l-55.84,14.96c-4.35,1.17-6.94,5.64-5.77,10l18.14,67.69c1.17,4.35,5.64,6.94,10,5.77l55.93-14.99c4.1-1.1,8.33,1.14,9.79,5.13,5.65,15.45,11.95,30.63,18.89,45.51,1.79,3.85.39,8.43-3.29,10.56l-50.18,28.97c-3.9,2.25-5.24,7.24-2.99,11.15l35.04,60.69c2.25,3.9,7.24,5.24,11.15,2.99l50.18-28.97c3.65-2.11,8.32-1.1,10.73,2.34.71,1.02,1.43,2.03,2.15,3.05,5.15,7.24,15.58,8.12,21.86,1.83l65.4-65.4c2.97-2.97,3.45-7.64,1.09-11.11-50.29-73.83-79.7-163.01-79.7-259.07Z"/>
    <path class="g" d="m1397.38,1316.69c40.42-56.58,64.22-125.85,64.22-200.69,0-190.66-154.94-345.6-345.6-345.6-74.84,0-144.11,23.79-200.69,64.22-4.12,2.94-4.59,8.9-1.02,12.48l470.61,470.61c3.58,3.58,9.53,3.1,12.47-1.01Z"/>
    <path class="g" d="m834.62,915.31c-40.42,56.58-64.21,125.85-64.22,200.68,0,190.66,154.94,345.61,345.6,345.61,74.84,0,144.11-23.79,200.69-64.22,4.12-2.94,4.59-8.9,1.02-12.47l-470.61-470.61c-3.58-3.58-9.53-3.1-12.48,1.01Z"/>
  </g>
</svg>