<?xml version="1.0" encoding="UTF-8"?>
<svg id="a" data-name="Layer" xmlns="http://www.w3.org/2000/svg" viewBox="0 0 3168 3168">
  <defs>
    <style>
      .b {
        stroke-width: 0px;
      }
    </style>
  </defs>
  <polygon class="b" points="504 274.06 504 143.14 373.09 143.14 373.09 192.23 422.19 192.23 324 290.42 225.81 192.23 274.91 192.23 274.91 143.14 144 143.14 144 274.06 193.09 274.06 193.09 224.96 291.27 323.14 193.09 421.33 193.09 372.23 144 372.23 144 503.14 274.91 503.14 274.91 454.06 225.81 454.06 324 355.87 422.19 454.06 373.09 454.06 373.09 503.14 504 503.14 504 372.23 454.91 372.23 454.91 421.33 356.72 323.14 454.91 224.96 454.91 274.06 504 274.06"/>
</svg>