<?xml version="1.0" encoding="UTF-8"?>
<svg id="a" data-name="Arrow_Line_箭头线" xmlns="http://www.w3.org/2000/svg" viewBox="0 0 3168 3168">
  <defs>
    <style>
      .b {
        stroke-width: 0px;
      }
    </style>
  </defs>
  <path class="b" d="m996.35,1698l-45.46,45.46-3.54,3.54,3.54,3.54,45.46,45.46h-39.86l-49-49,49-49h39.86m12.07-5h-54l-54,54,54,54h54l-54-54,54-54h0Z"/>
  <path class="b" d="m1104.35,1698l-45.46,45.46-3.54,3.54,3.54,3.54,45.46,45.46h-39.86l-49-49,49-49h39.86m12.07-5h-54l-54,54,54,54h54l-54-54,54-54h0Z"/>
  <path class="b" d="m1212.35,1698l-45.46,45.46-3.54,3.54,3.54,3.54,45.46,45.46h-39.86l-49-49,49-49h39.86m12.07-5h-54l-54,54,54,54h54l-54-54,54-54h0Z"/>
  <path class="b" d="m1320.35,1698l-45.46,45.46-3.54,3.54,3.54,3.54,45.46,45.46h-39.86l-49-49,49-49h39.86m12.07-5h-54l-54,54,54,54h54l-54-54,54-54h0Z"/>
  <path class="b" d="m1428.35,1698l-45.46,45.46-3.54,3.54,3.54,3.54,45.46,45.46h-39.86l-49-49,49-49h39.86m12.07-5h-54l-54,54,54,54h54l-54-54,54-54h0Z"/>
  <path class="b" d="m1536.35,1698l-45.46,45.46-3.54,3.54,3.54,3.54,45.46,45.46h-39.86l-49-49,49-49h39.86m12.07-5h-54l-54,54,54,54h54l-54-54,54-54h0Z"/>
  <path class="b" d="m1644.35,1698l-45.46,45.46-3.54,3.54,3.54,3.54,45.46,45.46h-39.86l-49-49,49-49h39.86m12.07-5h-54l-54,54,54,54h54l-54-54,54-54h0Z"/>
  <path class="b" d="m888.35,1698l-45.46,45.46-3.54,3.54,3.54,3.54,45.46,45.46h-39.86l-49-49,49-49h39.86m12.07-5h-54l-54,54,54,54h54l-54-54,54-54h0Z"/>
  <path class="b" d="m780.46,1698l-45.46,45.46-3.54,3.54,3.54,3.54,45.46,45.46h-39.86l-49-49,49-49h39.86m12.07-5h-54l-54,54,54,54h54l-54-54,54-54h0Z"/>
  <path class="b" d="m672.46,1698l-45.46,45.46-3.54,3.54,3.54,3.54,45.46,45.46h-39.86l-49-49,49-49h39.86m12.07-5h-54l-54,54,54,54h54l-54-54,54-54h0Z"/>
</svg>