<?xml version="1.0" encoding="UTF-8"?>
<svg id="a" data-name="Barrier_屏障" xmlns="http://www.w3.org/2000/svg" viewBox="0 0 3168 3168">
  <defs>
    <style>
      .b {
        stroke-width: 0px;
      }
    </style>
  </defs>
  <polygon class="b" points="888.98 2592.86 845.64 2544.86 845.64 2592.86 888.98 2592.86"/>
  <polygon class="b" points="953.99 2592.86 845.64 2472.86 845.64 2400.86 1019 2592.86 953.99 2592.86"/>
  <polygon class="b" points="845.64 2328.86 1084.01 2592.86 1149.02 2592.86 888.98 2304.86 845.64 2304.86 845.64 2328.86"/>
  <polygon class="b" points="953.99 2304.86 1214.03 2592.86 1279.04 2592.86 1019 2304.86 953.99 2304.86"/>
  <polygon class="b" points="1084.01 2304.86 1344.05 2592.86 1409.06 2592.86 1149.02 2304.86 1084.01 2304.86"/>
  <polygon class="b" points="1214.03 2304.86 1474.07 2592.86 1539.08 2592.86 1279.04 2304.86 1214.03 2304.86"/>
  <polygon class="b" points="1344.05 2304.86 1604.09 2592.86 1669.1 2592.86 1409.06 2304.86 1344.05 2304.86"/>
  <polygon class="b" points="1474.07 2304.86 1734.11 2592.86 1799.12 2592.86 1539.08 2304.86 1474.07 2304.86"/>
  <polygon class="b" points="1604.09 2304.86 1864.13 2592.86 1929.14 2592.86 1669.1 2304.86 1604.09 2304.86"/>
  <polygon class="b" points="1734.11 2304.86 1994.15 2592.86 2059.16 2592.86 1799.12 2304.86 1734.11 2304.86"/>
  <polygon class="b" points="2254.19 2304.86 2514.23 2592.86 2579.24 2592.86 2319.2 2304.86 2254.19 2304.86"/>
  <polygon class="b" points="2375.76 2304.86 2635.8 2592.86 2700.81 2592.86 2440.77 2304.86 2375.76 2304.86"/>
  <polygon class="b" points="2505.26 2304.86 2765.3 2592.86 2808.64 2592.86 2808.64 2568.86 2570.27 2304.86 2505.26 2304.86"/>
  <polygon class="b" points="2808.64 2496.86 2635.28 2304.86 2700.29 2304.86 2808.64 2424.86 2808.64 2496.86"/>
  <polygon class="b" points="2808.64 2304.86 2765.3 2304.86 2808.64 2352.86 2808.64 2304.86"/>
  <polygon class="b" points="1864.19 2304.86 2124.22 2592.86 2189.23 2592.86 1929.2 2304.86 1864.19 2304.86"/>
  <polygon class="b" points="1994.21 2304.86 2254.24 2592.86 2319.25 2592.86 2059.21 2304.86 1994.21 2304.86"/>
  <polygon class="b" points="2124.22 2304.86 2384.26 2592.86 2449.27 2592.86 2189.23 2304.86 2124.22 2304.86"/>
</svg>