<?xml version="1.0" encoding="UTF-8"?>
<svg id="a" data-name="Barrier_屏障" xmlns="http://www.w3.org/2000/svg" viewBox="0 0 3168 3168">
  <defs>
    <style>
      .b {
        stroke-width: 0px;
      }
    </style>
  </defs>
  <polygon class="b" points="2808.24 2880 2808.24 2850 2774.28 2880 2808.24 2880"/>
  <polygon class="b" points="2808.24 2820 2740.32 2880 2706.36 2880 2808.24 2790 2808.24 2820"/>
  <polygon class="b" points="2808.24 2760 2672.39 2880 2638.43 2880 2808.24 2730 2808.24 2760"/>
  <polygon class="b" points="2808.24 2700 2604.47 2880 2570.51 2880 2774.28 2700 2808.24 2700"/>
  <polygon class="b" points="2740.05 2700 2536.28 2880 2502.32 2880 2706.09 2700 2740.05 2700"/>
  <polygon class="b" points="2672.26 2700 2468.49 2880 2434.53 2880 2638.3 2700 2672.26 2700"/>
  <polygon class="b" points="2604.07 2700 2400.3 2880 2366.34 2880 2570.11 2700 2604.07 2700"/>
  <polygon class="b" points="2536.48 2700 2332.72 2880 2298.76 2880 2502.52 2700 2536.48 2700"/>
  <polygon class="b" points="2468.29 2700 2264.53 2880 2230.56 2880 2434.33 2700 2468.29 2700"/>
  <polygon class="b" points="2400.5 2700 2196.74 2880 2162.78 2880 2366.54 2700 2400.5 2700"/>
  <polygon class="b" points="2332.31 2700 2128.55 2880 2094.59 2880 2298.35 2700 2332.31 2700"/>
  <polygon class="b" points="2264.53 2700 2060.76 2880 2026.8 2880 2230.56 2700 2264.53 2700"/>
  <polygon class="b" points="2196.33 2700 1992.57 2880 1958.61 2880 2162.37 2700 2196.33 2700"/>
  <polygon class="b" points="2128.55 2700 1924.78 2880 1890.82 2880 2094.59 2700 2128.55 2700"/>
  <polygon class="b" points="2060.36 2700 1856.59 2880 1822.63 2880 2026.39 2700 2060.36 2700"/>
  <polygon class="b" points="1992.97 2700 1789.21 2880 1755.25 2880 1959.01 2700 1992.97 2700"/>
  <polygon class="b" points="1924.78 2700 1721.01 2880 1687.05 2880 1890.82 2700 1924.78 2700"/>
  <polygon class="b" points="1856.99 2700 1653.23 2880 1619.27 2880 1823.03 2700 1856.99 2700"/>
  <polygon class="b" points="1788.8 2700 1585.04 2880 1551.07 2880 1754.84 2700 1788.8 2700"/>
  <polygon class="b" points="1721.15 2700 1517.38 2880 1483.42 2880 1687.19 2700 1721.15 2700"/>
  <polygon class="b" points="1652.96 2700 1449.19 2880 1415.23 2880 1619 2700 1652.96 2700"/>
  <polygon class="b" points="1585.17 2700 1381.4 2880 1347.44 2880 1551.21 2700 1585.17 2700"/>
  <polygon class="b" points="1516.98 2700 1313.21 2880 1279.25 2880 1483.02 2700 1516.98 2700"/>
  <polygon class="b" points="1450.14 2700 1246.37 2880 1212.41 2880 1416.17 2700 1450.14 2700"/>
  <polygon class="b" points="1381.94 2700 1178.18 2880 1144.22 2880 1347.98 2700 1381.94 2700"/>
  <polygon class="b" points="1314.16 2700 1110.39 2880 1076.43 2880 1280.2 2700 1314.16 2700"/>
  <polygon class="b" points="1245.97 2700 1042.2 2880 1008.24 2880 1212 2700 1245.97 2700"/>
  <polygon class="b" points="1008.31 2700 1008.31 2730 1042.27 2700 1008.31 2700"/>
  <polygon class="b" points="1008.31 2760 1076.23 2700 1110.19 2700 1008.31 2790 1008.31 2760"/>
  <polygon class="b" points="1008.31 2820 1144.15 2700 1178.11 2700 1008.31 2850 1008.31 2820"/>
</svg>