<?xml version="1.0" encoding="UTF-8"?>
<svg id="a" data-name="Bridges_桥梁" xmlns="http://www.w3.org/2000/svg" viewBox="0 0 3168 3168">
  <defs>
    <style>
      .b {
        stroke-width: 0px;
      }
    </style>
  </defs>
  <polygon class="b" points="2862 1062 2871 1080 2872 1080 2872 1440.16 2871 1440.16 2862 1458.16 2862 1476.16 2898 1476.16 2898 1458.16 2889 1440.16 2888 1440.16 2888 1080 2889 1080 2898 1062 2898 1044 2862 1044 2862 1062"/>
  <polygon class="b" points="2790 1062 2799 1080 2800 1080 2800 1350 2799 1350 2790 1368 2790 1386 2826 1386 2826 1368 2817 1350 2816 1350 2816 1080 2817 1080 2826 1062 2826 1044 2790 1044 2790 1062"/>
  <polygon class="b" points="2718 1062 2727 1080 2728 1080 2728 1440.16 2727 1440.16 2718 1458.16 2718 1476.16 2754 1476.16 2754 1458.16 2745 1440.16 2744 1440.16 2744 1080 2745 1080 2754 1062 2754 1044 2718 1044 2718 1062"/>
</svg>