<?xml version="1.0" encoding="UTF-8"?>
<svg id="a" data-name="Bridges_桥梁" xmlns="http://www.w3.org/2000/svg" viewBox="0 0 3168 3168">
  <defs>
    <style>
      .b {
        stroke-width: 0px;
      }
    </style>
  </defs>
  <polygon class="b" points="2817 990 2816 990 2816 612 2800 612 2800 990 2799 990 2790 1008 2790 1026 2826 1026 2826 1008 2817 990"/>
  <polygon class="b" points="2888 990 2888 612 2872 612 2872 990 2871 990 2862 1008 2862 1026 2898 1026 2898 1008 2889 990 2888 990"/>
  <polygon class="b" points="2744 990 2744 612 2728 612 2728 990 2727 990 2718 1008 2718 1026 2754 1026 2754 1008 2745 990 2744 990"/>
</svg>