<?xml version="1.0" encoding="UTF-8"?>
<svg id="a" data-name="Circuit_电路" xmlns="http://www.w3.org/2000/svg" viewBox="0 0 3168 3168">
  <defs>
    <style>
      .b {
        stroke-width: 0px;
      }
    </style>
  </defs>
  <polygon class="b" points="3096.47 2908.24 3024.1 2908.24 3023.36 2907.32 2951.6 2819.11 2951.6 2379.71 2952.15 2379.03 3022.8 2292.18 3022.8 1854.53 3059.7 1809.18 3096.47 1809.18 3096.47 1814.12 3062.05 1814.12 3027.75 1856.29 3027.75 2293.94 3027.19 2294.62 2956.54 2381.47 2956.54 2817.35 3026.45 2903.29 3096.47 2903.29 3096.47 2908.24"/>
  <polygon class="b" points="3096.47 2930.12 3015.2 2930.12 3014.46 2929.21 2933.8 2830.05 2933.8 2368.77 2934.35 2368.09 3005 2281.24 3005 1843.59 3050.8 1787.29 3096.47 1787.29 3096.47 1792.24 3053.15 1792.24 3009.95 1845.35 3009.95 2283 3009.39 2283.68 2938.74 2370.53 2938.74 2828.3 3017.55 2925.17 3096.47 2925.17 3096.47 2930.12"/>
  <polygon class="b" points="3096.47 2886.35 3033 2886.35 2969.4 2808.17 2969.4 2390.65 2969.95 2389.97 3040.6 2303.12 3040.6 1865.48 3068.6 1831.06 3096.47 1831.06 3096.47 1836 3070.95 1836 3045.55 1867.23 3045.55 2304.88 3044.99 2305.56 2974.35 2392.41 2974.35 2806.41 3035.35 2881.41 3096.47 2881.41 3096.47 2886.35"/>
  <polygon class="b" points="3096.47 2952 3006.3 2952 3005.56 2951.09 2916 2840.99 2916 2357.83 2916.55 2357.14 2987.2 2270.3 2987.2 1756.06 3041.9 1688.82 3096.47 1688.82 3096.47 1693.77 3044.25 1693.77 2992.15 1757.82 2992.15 2272.06 2991.59 2272.74 2920.94 2359.59 2920.94 2839.24 3008.65 2947.05 3096.47 2947.05 3096.47 2952"/>
  <polygon class="b" points="2991.59 1835.09 2987.76 1831.97 3041.9 1765.41 3096.47 1765.41 3096.47 1770.36 3044.25 1770.36 2991.59 1835.09"/>
  <polygon class="b" points="3081.15 2295.53 3058.4 2295.53 3058.4 1876.42 3077.5 1852.94 3096.47 1852.94 3096.47 1857.89 3079.85 1857.89 3063.35 1878.18 3063.35 2290.59 3076.2 2290.59 3076.2 1887.36 3086.4 1874.82 3096.47 1874.82 3096.47 1879.77 3088.75 1879.77 3081.15 1889.12 3081.15 2295.53"/>
  <polygon class="b" points="2992.15 1767.88 2987.2 1767.88 2987.2 1723.24 3041.39 1656.62 3096.45 1656 3096.5 1660.95 3043.76 1661.54 2992.15 1725 2992.15 1767.88"/>
  <polygon class="b" points="3096.47 2864.47 3041.9 2864.47 3005 2819.11 3005 2598.53 3041.9 2553.17 3096.47 2553.17 3096.47 2558.12 3044.25 2558.12 3009.95 2600.29 3009.95 2817.35 3044.25 2859.52 3096.47 2859.52 3096.47 2864.47"/>
  <polygon class="b" points="3096.47 2842.59 3050.8 2842.59 3022.8 2808.17 3022.8 2718.88 3049.5 2686.06 3049.5 2642.3 3077.5 2607.88 3096.47 2607.88 3096.47 2612.83 3079.85 2612.83 3054.45 2644.05 3054.45 2687.82 3027.75 2720.64 3027.75 2806.41 3053.15 2837.64 3096.47 2837.64 3096.47 2842.59"/>
</svg>