<?xml version="1.0" encoding="UTF-8"?>
<svg id="a" data-name="Falsework_临时支架" xmlns="http://www.w3.org/2000/svg" viewBox="0 0 3168 3168">
  <defs>
    <style>
      .b {
        stroke-width: 0px;
      }
    </style>
  </defs>
  <path class="b" d="m1080.43,1025.8v-90.73h-72.78v4.49s-52.84,0-52.84,0v-4.49h-72.78v90.73h4.49s0,178.47,0,178.47h-4.49v90.73h72.78v-4.49s52.84,0,52.84,0v4.49h72.78v-90.73h-4.49s0-178.47,0-178.47h4.49Zm-24.27-71.79l-74.94,149.87-74.94-149.87h48.52v-4.49s52.84,0,52.84,0v4.49h48.52Zm-155.2,71.79v-60.14s74.69,149.38,74.69,149.38l-74.69,149.38v-60.14h-4.49s0-178.47,0-178.47h4.49Zm5.32,250.26l74.94-149.87,74.94,149.87h-48.52v4.49s-52.84,0-52.84,0v-4.49h-48.52Zm155.2-71.79v60.14s-74.69-149.38-74.69-149.38l74.69-149.38v60.14h4.49s0,178.47,0,178.47h-4.49Z"/>
</svg>