<?xml version="1.0" encoding="UTF-8"?>
<svg id="a" data-name="Fences_栅栏" xmlns="http://www.w3.org/2000/svg" viewBox="0 0 3168 3168">
  <defs>
    <style>
      .b {
        stroke-width: 0px;
      }
    </style>
  </defs>
  <g>
    <polygon class="b" points="528.74 820.45 413.72 820.45 413.72 935.43 428.09 935.43 428.09 834.82 528.74 834.82 528.74 820.45"/>
    <polygon class="b" points="361 868.36 461.64 868.36 461.64 767.75 476.02 767.75 476.02 882.73 361 882.73 361 868.36"/>
    <polygon class="b" points="654.7 694.63 539.69 694.63 539.69 809.61 554.06 809.61 554.06 709 654.7 709 654.7 694.63"/>
    <polygon class="b" points="486.97 742.54 587.61 742.54 587.61 641.93 601.99 641.93 601.99 756.91 486.97 756.91 486.97 742.54"/>
    <polygon class="b" points="780.09 569.09 665.07 569.09 665.07 684.07 679.45 684.07 679.45 583.46 780.09 583.46 780.09 569.09"/>
    <polygon class="b" points="612.35 617 713 617 713 516.39 727.37 516.39 727.37 631.37 612.35 631.37 612.35 617"/>
  </g>
  <g>
    <polygon class="b" points="901.07 448.06 786.06 448.06 786.06 563.04 800.43 563.04 800.43 462.43 901.07 462.43 901.07 448.06"/>
    <polygon class="b" points="733.34 495.97 833.98 495.97 833.98 395.36 848.36 395.36 848.36 510.34 733.34 510.34 733.34 495.97"/>
    <polygon class="b" points="1027.04 322.24 912.02 322.24 912.02 437.22 926.4 437.22 926.4 336.61 1027.04 336.61 1027.04 322.24"/>
    <polygon class="b" points="859.31 370.15 959.95 370.15 959.95 269.54 974.33 269.54 974.33 384.52 859.31 384.52 859.31 370.15"/>
    <polygon class="b" points="1152.43 196.7 1037.41 196.7 1037.41 311.68 1051.79 311.68 1051.79 211.07 1152.43 211.07 1152.43 196.7"/>
    <polygon class="b" points="984.69 244.61 1085.33 244.61 1085.33 144 1099.71 144 1099.71 258.98 984.69 258.98 984.69 244.61"/>
  </g>
</svg>