<?xml version="1.0" encoding="UTF-8"?>
<svg id="a" data-name="Fences_栅栏" xmlns="http://www.w3.org/2000/svg" viewBox="0 0 3168 3168">
  <defs>
    <style>
      .b {
        stroke-width: 0px;
      }
    </style>
  </defs>
  <g>
    <polygon class="b" points="403.59 1190.29 225.68 1190.29 225.68 1368.14 247.92 1368.14 247.92 1212.52 403.59 1212.52 403.59 1190.29"/>
    <polygon class="b" points="144.14 1264.4 299.81 1264.4 299.81 1108.78 322.05 1108.78 322.05 1286.63 144.14 1286.63 144.14 1264.4"/>
    <polygon class="b" points="598.43 995.69 420.52 995.69 420.52 1173.53 442.76 1173.53 442.76 1017.92 598.43 1017.92 598.43 995.69"/>
    <polygon class="b" points="338.98 1069.79 494.65 1069.79 494.65 914.17 516.89 914.17 516.89 1092.02 338.98 1092.02 338.98 1069.79"/>
    <polygon class="b" points="792.37 801.51 614.46 801.51 614.46 979.35 636.7 979.35 636.7 823.74 792.37 823.74 792.37 801.51"/>
    <polygon class="b" points="532.92 875.61 688.59 875.61 688.59 719.99 710.83 719.99 710.83 897.84 532.92 897.84 532.92 875.61"/>
  </g>
  <g>
    <polygon class="b" points="979.5 614.3 801.6 614.3 801.6 792.15 823.84 792.15 823.84 636.53 979.5 636.53 979.5 614.3"/>
    <polygon class="b" points="720.06 688.41 875.73 688.41 875.73 532.79 897.96 532.79 897.96 710.64 720.06 710.64 720.06 688.41"/>
    <polygon class="b" points="1174.35 419.69 996.44 419.69 996.44 597.54 1018.68 597.54 1018.68 441.92 1174.35 441.92 1174.35 419.69"/>
    <polygon class="b" points="914.9 493.8 1070.57 493.8 1070.57 338.18 1092.81 338.18 1092.81 516.03 914.9 516.03 914.9 493.8"/>
    <polygon class="b" points="1368.29 225.51 1190.38 225.51 1190.38 403.36 1212.62 403.36 1212.62 247.75 1368.29 247.75 1368.29 225.51"/>
    <polygon class="b" points="1108.84 299.62 1264.51 299.62 1264.51 144 1286.75 144 1286.75 321.85 1108.84 321.85 1108.84 299.62"/>
  </g>
</svg>