<?xml version="1.0" encoding="UTF-8"?>
<svg id="a" data-name="Microchip_微芯片" xmlns="http://www.w3.org/2000/svg" viewBox="0 0 3168 3168">
  <defs>
    <style>
      .b {
        stroke-width: 0px;
      }
    </style>
  </defs>
  <rect class="b" x="2700" y="252" width="216" height="216"/>
  <path class="b" d="m3024,297v-18h-45v-90h-90v-45h-18v45h-54v-45h-18v45h-54v-45h-18v45h-90v90h-45v18h45v55h-45v18h45v53h-45v18h45v90h90v45h18v-45h54v45h18v-45h54v45h18v-45h90v-90h45v-18h-45v-54h45v-18h-45v-54h45Zm-72,54h-27v18h27v54h-27v18h27v63h-63v-27h-18v27h-54v-27h-18v27h-54v-27h-18v27h-63v-63h27v-18h-27v-53h27v-18h-27v-55h27v-18h-27v-63h63v27h18v-27h54v27h18v-27h54v27h18v-27h63v63h-27v18h27v54Z"/>
</svg>