<?xml version="1.0" encoding="UTF-8"?>
<svg id="a" data-name="PCB_电路板" xmlns="http://www.w3.org/2000/svg" viewBox="0 0 3168 3168">
  <defs>
    <style>
      .b {
        stroke-width: 0px;
      }
    </style>
  </defs>
  <polygon class="b" points="72.17 2935.31 72.21 2951.31 147.51 2951.16 224.19 2874.48 224.19 2370.48 368.19 2226.48 368.19 1935.17 369.19 1935.17 378.19 1917.17 378.19 1899.17 342.19 1899.17 342.19 1917.17 351.19 1935.17 352.19 1935.17 352.19 2219.85 208.19 2363.85 208.19 2867.85 140.87 2935.17 72.17 2935.31"/>
  <polygon class="b" points="424.19 2043.17 424.19 2255.85 280.19 2399.85 280.19 2903.85 176.86 3007.19 72.14 3007.88 72.24 3023.88 183.53 3023.14 296.19 2910.48 296.19 2406.48 440.19 2262.48 440.19 2043.17 441.19 2043.17 450.19 2025.17 450.19 2007.17 414.19 2007.17 414.19 2025.17 423.19 2043.17 424.19 2043.17"/>
  <polygon class="b" points="136.19 2478.48 136.19 2831.85 104.76 2863.28 71.9 2864.46 72.48 2880.45 111.62 2879.05 152.19 2838.48 152.19 2471.85 111.54 2431.21 72.29 2430.74 72.1 2446.74 104.84 2447.13 136.19 2478.48"/>
</svg>